# xmcd
#
# Track frame offsets:
# 150
# 13204
# 34953
# 50819
# 62073
# 78687
# 95960
# 108113
# 124241
# 137707
# 149073
#
# Disc length: 2183 seconds
#
#
# Revision: 2
# Processed by: cddbd v1.5.1PL0 Copyright (c) Steve Scherf et al.
# Submitted via: FreeRIP 2.943 
#
DISCID=ad08850b
DTITLE=hal ketchum - threadbare alibis
DYEAR=1989
DGENRE=Country
TTITLE0=twenty years
TTITLE1=someplace far away
TTITLE2=sawmill song
TTITLE3=bobbie's song
TTITLE4=better left unsaid
TTITLE5=christina
TTITLE6=morning side of dawn
TTITLE7=the belgian team
TTITLE8=black burning air
TTITLE9=came down to ride
TTITLE10=naomi
EXTD=
EXTT0=
EXTT1=
EXTT2=
EXTT3=
EXTT4=
EXTT5=
EXTT6=
EXTT7=
EXTT8=
EXTT9=
EXTT10=
PLAYORDER=
